# xmcd
#
# Track frame offsets: 
#        150
#        6486
#        24686
#        45051
#        61932
#        85055
#        99311
#        123381
#        130075
#        144587
#        158564
#        178659
#        190377
#        206677
#
# Disc length: 3024 seconds
#
# Revision: 0
# Processed by: cddbd v1.5.2PL0 Copyright (c) Steve Scherf et al.
# Submitted via: ExactAudioCopyFreeDBPlugin 1.0
#
DISCID=b40bce0e
DTITLE=Insane Clown Posse - The Marvelous Missing Link - The  Outtakes
DYEAR=2015
DGENRE=The Wicked Shit
TTITLE0=Lost Intro
TTITLE1=The Missing Link
TTITLE2=Six Pedophiles
TTITLE3=The Monster
TTITLE4=Why'd I Have to Die?
TTITLE5=Joey The Butcher
TTITLE6=The Dream
TTITLE7=Found Intro
TTITLE8=Let Loose
TTITLE9=Dead Heather
TTITLE10=The Carousel
TTITLE11=Hooker
TTITLE12=I'm Sorry
TTITLE13=Immortal
EXTD=
EXTT0=
EXTT1=
EXTT2=
EXTT3=
EXTT4=
EXTT5=
EXTT6=
EXTT7=
EXTT8=
EXTT9=
EXTT10=
EXTT11=
EXTT12=
EXTT13=
PLAYORDER=
